<svg xmlns="http://www.w3.org/2000/svg" viewBox="0 0 900 1200" preserveAspectRatio="none">
  <defs>
    <filter id="blur" x="-30%" y="-20%" width="160%" height="140%">
      <feGaussianBlur stdDeviation="7"/>
    </filter>
    <linearGradient id="fade" x1="0" y1="0" x2="1" y2="1">
      <stop offset="0" stop-color="#000" stop-opacity=".72"/>
      <stop offset=".72" stop-color="#000" stop-opacity=".48"/>
      <stop offset="1" stop-color="#000" stop-opacity="0"/>
    </linearGradient>
  </defs>
  <g fill="url(#fade)" filter="url(#blur)" opacity=".78">
    <!-- palm frond 1 -->
    <path d="M70 0 C150 135 180 275 205 430 C226 570 250 760 305 1030 C280 820 278 620 286 470 C295 280 265 130 190 0 Z"/>
    <path d="M205 430 C105 360 44 270 12 155 C118 236 196 300 244 372 Z"/>
    <path d="M228 520 C122 490 55 420 18 330 C122 376 194 424 263 477 Z"/>
    <path d="M250 620 C142 608 77 562 35 494 C145 520 211 548 276 584 Z"/>
    <path d="M270 730 C174 741 99 719 46 666 C151 672 220 686 292 700 Z"/>
    <!-- palm frond 2 -->
    <path d="M0 180 C160 150 285 175 420 250 C500 294 555 340 620 392 C486 328 350 285 205 264 C120 251 56 235 0 220 Z"/>
    <path d="M235 260 C245 150 286 76 355 18 C330 120 326 200 318 288 Z"/>
    <path d="M330 294 C370 185 430 110 510 70 C458 170 430 242 414 330 Z"/>
    <path d="M420 330 C500 245 582 202 666 194 C584 251 532 315 492 377 Z"/>
  </g>
</svg>
