<svg xmlns="http://www.w3.org/2000/svg" viewBox="0 0 900 1200" preserveAspectRatio="none">
  <defs>
    <filter id="soft" x="-20%" y="-20%" width="140%" height="140%"><feGaussianBlur stdDeviation="7"/></filter>
    <mask id="fenestrations">
      <rect width="900" height="1200" fill="white"/>
      <g fill="black">
        <ellipse cx="290" cy="275" rx="34" ry="86" transform="rotate(-35 290 275)"/>
        <ellipse cx="400" cy="335" rx="32" ry="82" transform="rotate(-18 400 335)"/>
        <ellipse cx="505" cy="405" rx="29" ry="78" transform="rotate(2 505 405)"/>
        <ellipse cx="600" cy="500" rx="26" ry="70" transform="rotate(18 600 500)"/>
        <ellipse cx="675" cy="610" rx="23" ry="62" transform="rotate(30 675 610)"/>
        <ellipse cx="250" cy="410" rx="25" ry="70" transform="rotate(60 250 410)"/>
        <ellipse cx="345" cy="505" rx="22" ry="64" transform="rotate(55 345 505)"/>
        <ellipse cx="445" cy="600" rx="20" ry="58" transform="rotate(48 445 600)"/>
        <ellipse cx="535" cy="700" rx="18" ry="52" transform="rotate(42 535 700)"/>
        <ellipse cx="610" cy="790" rx="16" ry="46" transform="rotate(35 610 790)"/>
      </g>
    </mask>
  </defs>
  <g fill="#000" opacity=".78" filter="url(#soft)" mask="url(#fenestrations)">
    <path d="M35 85 C125 18 262 30 384 92 C514 158 621 270 676 395 C730 518 759 669 805 868 C708 787 610 710 505 643 C394 572 300 502 205 430 C126 370 67 313 22 246 C70 198 76 135 35 85 Z"/>
  </g>
  <g fill="none" stroke="#000" opacity=".58" filter="url(#soft)">
    <path d="M90 108 C265 252 405 426 690 840" stroke-width="16"/>
    <path d="M190 205 C176 274 168 342 177 407" stroke-width="9"/>
    <path d="M275 275 C260 354 258 430 278 492" stroke-width="9"/>
    <path d="M365 350 C356 429 365 505 392 566" stroke-width="8"/>
    <path d="M458 442 C455 510 470 575 500 633" stroke-width="8"/>
    <path d="M548 550 C553 612 571 671 599 724" stroke-width="7"/>
  </g>
</svg>
