<svg xmlns="http://www.w3.org/2000/svg" viewBox="0 0 900 1200" preserveAspectRatio="none">
  <defs>
    <filter id="soft" x="-20%" y="-20%" width="140%" height="140%"><feGaussianBlur stdDeviation="5"/></filter>
    <mask id="monsteraCutouts">
      <rect width="900" height="1200" fill="white"/>
      <g fill="black">
        <ellipse cx="205" cy="250" rx="38" ry="86" transform="rotate(-28 205 250)"/>
        <ellipse cx="295" cy="335" rx="30" ry="74" transform="rotate(-20 295 335)"/>
        <ellipse cx="360" cy="445" rx="28" ry="66" transform="rotate(-8 360 445)"/>
        <ellipse cx="420" cy="565" rx="25" ry="62" transform="rotate(10 420 565)"/>
        <ellipse cx="485" cy="690" rx="22" ry="56" transform="rotate(18 485 690)"/>
        <ellipse cx="570" cy="790" rx="20" ry="50" transform="rotate(24 570 790)"/>
        <ellipse cx="660" cy="855" rx="18" ry="45" transform="rotate(30 660 855)"/>
        <ellipse cx="255" cy="470" rx="22" ry="58" transform="rotate(65 255 470)"/>
        <ellipse cx="320" cy="565" rx="20" ry="52" transform="rotate(58 320 565)"/>
        <ellipse cx="390" cy="655" rx="18" ry="46" transform="rotate(55 390 655)"/>
        <ellipse cx="465" cy="735" rx="16" ry="40" transform="rotate(52 465 735)"/>
      </g>
    </mask>
  </defs>
  <g fill="#000" opacity=".82" filter="url(#soft)" mask="url(#monsteraCutouts)">
    <path d="M35 75 C125 20 250 42 356 105 C470 173 566 285 610 405 C653 520 684 668 716 820 C650 746 571 672 500 608 C424 539 352 473 277 413 C198 350 114 295 35 264 C82 218 86 154 35 75 Z"/>
  </g>
  <g fill="#000" opacity=".48" filter="url(#soft)">
    <path d="M-40 760 C30 650 132 602 236 612 C344 622 437 690 500 788 C549 865 575 978 587 1115 C512 1047 438 986 362 944 C286 902 201 882 117 889 C48 895 4 853 -40 760 Z"/>
    <path d="M36 756 C119 738 199 746 270 782" fill="none" stroke="#000" stroke-width="13"/>
    <path d="M103 694 C151 757 176 829 186 912" fill="none" stroke="#000" stroke-width="10"/>
    <path d="M180 655 C224 728 253 816 264 915" fill="none" stroke="#000" stroke-width="10"/>
    <path d="M267 668 C304 741 328 829 338 946" fill="none" stroke="#000" stroke-width="9"/>
  </g>
</svg>
